<svg xmlns="http://www.w3.org/2000/svg" width="18.017" height="15.029" viewBox="0 0 18.017 15.029">
  <g id="arrow-show" transform="translate(-1873.938 -447.796)">
    <g id="arrow-show-2" data-name="arrow-show" transform="matrix(1, -0.017, 0.017, 1, 1882.938, 447.958)">
      <g id="Group_8" data-name="Group 8" transform="translate(0 0)">
        <g id="Group_7" data-name="Group 7">
          <path id="Path_5" data-name="Path 5" d="M2.937,7.426l5.583,5.566a.814.814,0,0,1,0,1.151l-.489.487a.819.819,0,0,1-1.154,0L.229,8a.82.82,0,0,1,0-1.155L6.87.228a.82.82,0,0,1,1.155,0l.489.487a.813.813,0,0,1,0,1.151Z" fill="#fffaf1"/>
        </g>
      </g>
    </g>
    <g id="arrow-show-3" data-name="arrow-show" transform="matrix(1, -0.017, 0.017, 1, 1873.947, 447.958)">
      <g id="Group_8-2" data-name="Group 8" transform="translate(0 0)">
        <g id="Group_7-2" data-name="Group 7">
          <path id="Path_5-2" data-name="Path 5" d="M2.937,7.426l5.583,5.566a.814.814,0,0,1,0,1.151l-.489.487a.819.819,0,0,1-1.154,0L.229,8a.82.82,0,0,1,0-1.155L6.87.228a.82.82,0,0,1,1.155,0l.489.487a.813.813,0,0,1,0,1.151Z" fill="#fffaf1"/>
        </g>
      </g>
    </g>
  </g>
</svg>
