<svg xmlns="http://www.w3.org/2000/svg" width="24" height="24" viewBox="0 0 24 24">
  <g id="github-logo" transform="translate(0 -5.365)">
    <g id="Group_9" data-name="Group 9" transform="translate(0 5.365)">
      <path id="Path_6" data-name="Path 6" d="M22.39,11.491a12.1,12.1,0,0,0-4.367-4.477A11.517,11.517,0,0,0,12,5.365a11.519,11.519,0,0,0-6.023,1.65,12.1,12.1,0,0,0-4.367,4.477A12.265,12.265,0,0,0,0,17.665,12.157,12.157,0,0,0,2.289,24.9,11.776,11.776,0,0,0,8.2,29.341a.686.686,0,0,0,.625-.112.634.634,0,0,0,.2-.48q0-.048-.008-.865t-.008-1.425l-.359.064a4.474,4.474,0,0,1-.867.056A6.451,6.451,0,0,1,6.7,26.467a2.4,2.4,0,0,1-1.047-.48A2.031,2.031,0,0,1,4.968,25l-.156-.369a4.021,4.021,0,0,0-.492-.817,1.9,1.9,0,0,0-.68-.609l-.109-.08a1.158,1.158,0,0,1-.2-.192.882.882,0,0,1-.141-.224q-.047-.112.078-.185a.991.991,0,0,1,.453-.072l.312.048a2.257,2.257,0,0,1,.773.384,2.561,2.561,0,0,1,.758.833,2.8,2.8,0,0,0,.867,1,1.809,1.809,0,0,0,1.023.344,4.338,4.338,0,0,0,.891-.08,3.055,3.055,0,0,0,.7-.24,2.621,2.621,0,0,1,.766-1.65,10.462,10.462,0,0,1-1.6-.288,6.291,6.291,0,0,1-1.469-.625,4.233,4.233,0,0,1-1.258-1.073,5.207,5.207,0,0,1-.82-1.682,8.184,8.184,0,0,1-.32-2.4,4.738,4.738,0,0,1,1.234-3.3,4.405,4.405,0,0,1,.109-3.267,2.142,2.142,0,0,1,1.344.216,9.29,9.29,0,0,1,1.3.617q.414.256.664.432a11.018,11.018,0,0,1,6,0l.594-.384a8.321,8.321,0,0,1,1.437-.7,2,2,0,0,1,1.266-.176,4.363,4.363,0,0,1,.125,3.267,4.738,4.738,0,0,1,1.235,3.3,8.276,8.276,0,0,1-.32,2.41,5,5,0,0,1-.828,1.682,4.393,4.393,0,0,1-1.266,1.065,6.3,6.3,0,0,1-1.469.625,10.451,10.451,0,0,1-1.6.289,2.892,2.892,0,0,1,.812,2.274v3.379a.646.646,0,0,0,.2.48.666.666,0,0,0,.617.112A11.774,11.774,0,0,0,21.711,24.9,12.159,12.159,0,0,0,24,17.665,12.275,12.275,0,0,0,22.39,11.491Z" transform="translate(0 -5.365)" fill="#faed98"/>
    </g>
  </g>
</svg>
