<svg xmlns="http://www.w3.org/2000/svg" width="24" height="24" viewBox="0 0 24 24">
  <g id="linkedin-letters-mobile" transform="translate(0 -9.708)">
    <g id="Group_11" data-name="Group 11" transform="translate(0 9.708)">
      <g id="Group_10" data-name="Group 10">
        <rect id="Rectangle_5" data-name="Rectangle 5" width="5.156" height="16.201" transform="translate(0.297 7.798)" fill="#faed98"/>
        <path id="Path_7" data-name="Path 7" d="M165.675,141.187a5.432,5.432,0,0,0-4.3-1.856,5.937,5.937,0,0,0-1.789.254,3.993,3.993,0,0,0-1.359.711,6.791,6.791,0,0,0-.883.85,7,7,0,0,0-.609.865v-2.3H151.6l.016.785q.016.785.016,4.839t-.031,10.578h5.141v-9.041a4.118,4.118,0,0,1,.172-1.324,3.465,3.465,0,0,1,.992-1.4,2.458,2.458,0,0,1,1.649-.564,2.19,2.19,0,0,1,1.977.973,4.9,4.9,0,0,1,.633,2.689v8.665H167.3v-9.285A8.023,8.023,0,0,0,165.675,141.187Z" transform="translate(-143.3 -131.908)" fill="#faed98"/>
        <path id="Path_8" data-name="Path 8" d="M2.906,9.708A2.866,2.866,0,0,0,.8,10.5a2.693,2.693,0,0,0-.8,2,2.709,2.709,0,0,0,2.844,2.8h.031a2.869,2.869,0,0,0,2.117-.8A2.649,2.649,0,0,0,5.781,12.5a2.791,2.791,0,0,0-.8-2A2.785,2.785,0,0,0,2.906,9.708Z" transform="translate(0 -9.708)" fill="#faed98"/>
      </g>
    </g>
  </g>
</svg>
