<svg xmlns="http://www.w3.org/2000/svg" width="32" height="32" viewBox="0 0 32 32">
  <g id="linkedin-letters" transform="translate(0 -9.708)">
    <g id="Group_11" data-name="Group 11" transform="translate(0 9.708)">
      <g id="Group_10" data-name="Group 10">
        <rect id="Rectangle_5" data-name="Rectangle 5" width="6.875" height="21.602" transform="translate(0.396 10.398)" fill="#faed98"/>
        <path id="Path_7" data-name="Path 7" d="M170.368,141.805a7.242,7.242,0,0,0-5.729-2.474,7.915,7.915,0,0,0-2.386.338,5.325,5.325,0,0,0-1.812.948,9.058,9.058,0,0,0-1.177,1.133,9.343,9.343,0,0,0-.813,1.153v-3.072H151.6l.021,1.046q.021,1.047.021,6.452t-.042,14.1h6.854V149.38a5.491,5.491,0,0,1,.229-1.766A4.62,4.62,0,0,1,160,145.75a3.277,3.277,0,0,1,2.2-.752,2.919,2.919,0,0,1,2.635,1.3,6.535,6.535,0,0,1,.844,3.586v11.553h6.854V149.053Q172.534,144.279,170.368,141.805Z" transform="translate(-140.535 -129.434)" fill="#faed98"/>
        <path id="Path_8" data-name="Path 8" d="M3.875,9.708a3.822,3.822,0,0,0-2.8,1.057A3.591,3.591,0,0,0,0,13.435a3.613,3.613,0,0,0,3.792,3.727h.042a3.825,3.825,0,0,0,2.823-1.068,3.532,3.532,0,0,0,1.052-2.659,3.721,3.721,0,0,0-1.063-2.67A3.714,3.714,0,0,0,3.875,9.708Z" transform="translate(0 -9.708)" fill="#faed98"/>
      </g>
    </g>
  </g>
</svg>
