<svg xmlns="http://www.w3.org/2000/svg" width="64.008" height="64.008" viewBox="0 0 64.008 64.008">
  <g id="Group_4" data-name="Group 4" transform="translate(0.003 0.008)">
    <g id="Group_3" data-name="Group 3">
      <rect id="Rectangle_1" data-name="Rectangle 1" width="14.309" height="45.565" transform="translate(0.824 18.434)" fill="#807e86"/>
      <path id="Path_1" data-name="Path 1" d="M190.666,144.55a14.984,14.984,0,0,0-11.924-5.219,16.273,16.273,0,0,0-4.966.713,11.035,11.035,0,0,0-3.772,2,18.97,18.97,0,0,0-2.45,2.391,19.709,19.709,0,0,0-1.691,2.432v-6.479H151.6l.044,2.207q.044,2.208.044,13.61t-.087,29.749h14.266V160.527a11.727,11.727,0,0,1,.477-3.725,9.744,9.744,0,0,1,2.754-3.931,6.763,6.763,0,0,1,4.575-1.587,6.051,6.051,0,0,1,5.485,2.736,13.931,13.931,0,0,1,1.756,7.564v24.369H195.18V159.838Q195.174,149.767,190.666,144.55Z" transform="translate(-131.176 -121.954)" fill="#807e86"/>
      <path id="Path_2" data-name="Path 2" d="M8.065,9.708a7.9,7.9,0,0,0-5.832,2.23A7.627,7.627,0,0,0,0,17.57a7.771,7.771,0,0,0,2.168,5.61,7.579,7.579,0,0,0,5.723,2.253h.087a7.9,7.9,0,0,0,5.876-2.253,7.5,7.5,0,0,0,2.19-5.609,7.9,7.9,0,0,0-2.211-5.632A7.674,7.674,0,0,0,8.065,9.708Z" transform="translate(0 -9.708)" fill="#807e86"/>
    </g>
  </g>
</svg>
