<svg xmlns="http://www.w3.org/2000/svg" width="135" height="30" viewBox="0 0 135 30">
  <g id="omar-logo" transform="translate(-1615 -993)">
    <g id="Group_24" data-name="Group 24" transform="translate(2268 -11282) rotate(90)">
      <path id="Rectangle_10" data-name="Rectangle 10" d="M15,0h0a0,0,0,0,1,0,0V15a0,0,0,0,1,0,0H0a0,0,0,0,1,0,0v0A15,15,0,0,1,15,0Z" transform="translate(12275 518)" fill="#e84855"/>
      <path id="Rectangle_11" data-name="Rectangle 11" d="M0,0H15a0,0,0,0,1,0,0V15a0,0,0,0,1,0,0h0A15,15,0,0,1,0,0V0A0,0,0,0,1,0,0Z" transform="translate(12275 533)" fill="#f9e0d9"/>
      <rect id="Rectangle_12" data-name="Rectangle 12" width="15" height="15" transform="translate(12290 533)" fill="#faed98"/>
    </g>
    <g id="Group_25" data-name="Group 25" transform="translate(-10546 748)">
      <path id="Rectangle_10-2" data-name="Rectangle 10" d="M15,0h0a0,0,0,0,1,0,0V15a0,0,0,0,1,0,0H0a0,0,0,0,1,0,0v0A15,15,0,0,1,15,0Z" transform="translate(12261 245) rotate(90)" fill="#e84855"/>
      <path id="Rectangle_11-2" data-name="Rectangle 11" d="M0,0H15a0,0,0,0,1,0,0V15a0,0,0,0,1,0,0h0A15,15,0,0,1,0,0V0A0,0,0,0,1,0,0Z" transform="translate(12246 245) rotate(90)" fill="#f9e0d9"/>
      <rect id="Rectangle_12-2" data-name="Rectangle 12" width="15" height="15" transform="translate(12246 260) rotate(90)" fill="#faed98"/>
      <rect id="Rectangle_13" data-name="Rectangle 13" width="15" height="15" transform="translate(12261 260) rotate(90)" fill="#faed98"/>
    </g>
    <g id="Group_29" data-name="Group 29" transform="translate(1505 948)">
      <g id="Group_26" data-name="Group 26" transform="translate(155.699 45)">
        <path id="Rectangle_10-3" data-name="Rectangle 10" d="M9.651,0H15a0,0,0,0,1,0,0V9.651a0,0,0,0,1,0,0H0a0,0,0,0,1,0,0v0A9.651,9.651,0,0,1,9.651,0Z" transform="translate(19.302 0) rotate(90)" fill="#e84855"/>
        <path id="Rectangle_11-3" data-name="Rectangle 11" d="M0,0H15a0,0,0,0,1,0,0V9.651a0,0,0,0,1,0,0H9.651A9.651,9.651,0,0,1,0,0V0A0,0,0,0,1,0,0Z" transform="translate(9.651 0) rotate(90)" fill="#f9e0d9"/>
        <rect id="Rectangle_12-3" data-name="Rectangle 12" width="15" height="9.651" transform="translate(9.651 15) rotate(90)" fill="#faed98"/>
        <rect id="Rectangle_13-2" data-name="Rectangle 13" width="15" height="9.651" transform="translate(19.302 15) rotate(90)" fill="#faed98"/>
      </g>
      <g id="Group_27" data-name="Group 27" transform="translate(145 45)">
        <path id="Rectangle_10-4" data-name="Rectangle 10" d="M9.651,0H15a0,0,0,0,1,0,0V9.651a0,0,0,0,1,0,0H0a0,0,0,0,1,0,0v0A9.651,9.651,0,0,1,9.651,0Z" transform="translate(19.302 0) rotate(90)" fill="#e84855"/>
        <path id="Rectangle_11-4" data-name="Rectangle 11" d="M0,0H15a0,0,0,0,1,0,0V9.651a0,0,0,0,1,0,0H9.651A9.651,9.651,0,0,1,0,0V0A0,0,0,0,1,0,0Z" transform="translate(9.651 0) rotate(90)" fill="#f9e0d9"/>
        <rect id="Rectangle_12-4" data-name="Rectangle 12" width="15" height="9.651" transform="translate(9.651 15) rotate(90)" fill="#faed98"/>
        <rect id="Rectangle_13-3" data-name="Rectangle 13" width="15" height="9.651" transform="translate(19.302 15) rotate(90)" fill="#faed98"/>
      </g>
    </g>
    <g id="Group_28" data-name="Group 28" transform="translate(-10511 1267)">
      <path id="Rectangle_10-5" data-name="Rectangle 10" d="M15,0h0a0,0,0,0,1,0,0V15a0,0,0,0,1,0,0H0a0,0,0,0,1,0,0v0A15,15,0,0,1,15,0Z" transform="translate(12156 -274) rotate(90)" fill="#e84855"/>
      <path id="Rectangle_11-5" data-name="Rectangle 11" d="M0,0H15a0,0,0,0,1,0,0V15a0,0,0,0,1,0,0h0A15,15,0,0,1,0,0V0A0,0,0,0,1,0,0Z" transform="translate(12141 -274) rotate(90)" fill="#f9e0d9"/>
      <path id="Rectangle_12-5" data-name="Rectangle 12" d="M0,0H15a0,0,0,0,1,0,0V0A15,15,0,0,1,0,15H0a0,0,0,0,1,0,0V0A0,0,0,0,1,0,0Z" transform="translate(12141 -259) rotate(90)" fill="#faed98"/>
      <path id="Rectangle_13-4" data-name="Rectangle 13" d="M0,0H0A15,15,0,0,1,15,15v0a0,0,0,0,1,0,0H0a0,0,0,0,1,0,0V0A0,0,0,0,1,0,0Z" transform="translate(12156 -259) rotate(90)" fill="#faed98"/>
    </g>
  </g>
</svg>
