<svg xmlns="http://www.w3.org/2000/svg" width="32" height="40" viewBox="0 0 32 40">
  <g id="skills" transform="translate(-54)">
    <g id="XMLID_994_">
      <g id="XMLID_210_" transform="translate(54)">
        <path id="XMLID_462_" d="M83.624,0H61.762V0a.8.8,0,0,0-.56.227L54.232,7.1a.774.774,0,0,0-.23.552h0v30A2.363,2.363,0,0,0,56.376,40H83.624A2.363,2.363,0,0,0,86,37.656V29.946a.792.792,0,0,0-1.584,0v7.711a.788.788,0,0,1-.792.781H56.376a.788.788,0,0,1-.792-.781V8.438h4.594a2.363,2.363,0,0,0,2.376-2.344V1.563H83.624a.788.788,0,0,1,.792.781V23.7A.792.792,0,0,0,86,23.7V2.344A2.363,2.363,0,0,0,83.624,0ZM60.97,6.094a.788.788,0,0,1-.792.781H56.7L60.97,2.667Z" transform="translate(-54 0)" fill="#faed98"/>
        <path id="XMLID_466_" d="M438.792,333.3a.8.8,0,0,0-.56.229.774.774,0,0,0,0,1.1.8.8,0,0,0,1.12,0,.773.773,0,0,0,0-1.1A.8.8,0,0,0,438.792,333.3Z" transform="translate(-407.584 -307.261)" fill="#faed98"/>
        <path id="XMLID_469_" d="M191.043,65.037a9.314,9.314,0,0,0-4.235-3.334.8.8,0,0,0-1.029.436.778.778,0,0,0,.442,1.015,7.623,7.623,0,0,1,4.887,7.114,7.541,7.541,0,0,1-1.389,4.365,2.724,2.724,0,0,0-2.006-1.8l-1.853-.4a3.224,3.224,0,0,0,.8-2.12V68.34a2.289,2.289,0,0,0,.388-1.275V65.42a.787.787,0,0,0-.792-.781h-3.359a2.841,2.841,0,0,0-2.857,2.818v1.152a.782.782,0,0,1,0,.162v1.543a3.224,3.224,0,0,0,.794,2.118l-1.853.4a2.725,2.725,0,0,0-2,1.8,7.541,7.541,0,0,1-1.388-4.364,7.623,7.623,0,0,1,4.887-7.114.778.778,0,0,0,.442-1.015.8.8,0,0,0-1.029-.436,9.315,9.315,0,0,0-4.235,3.334A9.081,9.081,0,0,0,174,70.269a9.294,9.294,0,0,0,9.336,9.219h.011a9.294,9.294,0,0,0,9.347-9.219A9.08,9.08,0,0,0,191.043,65.037Zm-2.774,10.417v.73a7.783,7.783,0,0,1-3.739,1.652l1.479-3.771,1.367.295A1.13,1.13,0,0,1,188.269,75.454Zm-3.2-5.14a1.726,1.726,0,0,1-3.452,0V69.39h3.066a2.39,2.39,0,0,0,.386-.032Zm-2.664,3.131a3.341,3.341,0,0,0,1.865,0,1.453,1.453,0,0,0,.21.175l-1.144,2.918L182.2,73.623A1.459,1.459,0,0,0,182.408,73.445Zm-.788-5.988a1.265,1.265,0,0,1,1.273-1.255h2.567v.863a.769.769,0,0,1-.774.763H181.62v-.371Zm-2.3,6.9,1.354-.293,1.478,3.768a7.782,7.782,0,0,1-3.724-1.649v-.731A1.13,1.13,0,0,1,179.316,74.359Z" transform="translate(-164.495 -56.831)" fill="#faed98"/>
        <path id="XMLID_476_" d="M205.93,318h-12.6a2.344,2.344,0,1,0,0,4.688h12.6a2.344,2.344,0,1,0,0-4.687Zm-13.39,2.344a.788.788,0,0,1,.792-.781h9.746v1.563h-9.746A.788.788,0,0,1,192.54,320.344Zm13.39.781h-1.267v-1.562h1.267a.781.781,0,1,1,0,1.563Z" transform="translate(-180.108 -293.156)" fill="#faed98"/>
        <path id="XMLID_480_" d="M205.93,398h-12.6a2.344,2.344,0,1,0,0,4.687h12.6a2.344,2.344,0,1,0,0-4.687Zm-13.39,2.344a.788.788,0,0,1,.792-.781h7.053v1.562h-7.053A.788.788,0,0,1,192.54,400.344Zm13.39.781h-3.96v-1.562h3.96a.781.781,0,1,1,0,1.562Z" transform="translate(-180.108 -366.906)" fill="#faed98"/>
        <path id="XMLID_780_" d="M105.96,398h-3.168a.787.787,0,0,0-.792.781v3.125a.787.787,0,0,0,.792.781h3.168a.787.787,0,0,0,.792-.781v-3.125A.787.787,0,0,0,105.96,398Zm-.792,3.125h-1.584v-1.562h1.584Z" transform="translate(-98.198 -366.906)" fill="#faed98"/>
        <path id="XMLID_927_" d="M106.753,318.781a.787.787,0,0,0-.792-.781h-3.168a.787.787,0,0,0-.792.781v3.125a.787.787,0,0,0,.792.781h3.168a.787.787,0,0,0,.792-.781Zm-1.584,2.344h-1.584v-1.562h1.584Z" transform="translate(-98.198 -293.156)" fill="#faed98"/>
        <path id="XMLID_944_" d="M107.36,250.781a.787.787,0,0,0-.792-.781h-3.776a.781.781,0,1,0,0,1.563h3.776A.787.787,0,0,0,107.36,250.781Z" transform="translate(-98.198 -230.469)" fill="#faed98"/>
        <path id="XMLID_990_" d="M102.792,203.563h2.653a.781.781,0,1,0,0-1.562h-2.653a.781.781,0,1,0,0,1.563Z" transform="translate(-98.198 -186.219)" fill="#faed98"/>
        <path id="XMLID_992_" d="M102.792,155.563h2.653a.781.781,0,1,0,0-1.563h-2.653a.781.781,0,1,0,0,1.563Z" transform="translate(-98.198 -141.969)" fill="#faed98"/>
        <path id="XMLID_993_" d="M283.352,55.334a.773.773,0,0,0,0-1.1.8.8,0,0,0-1.12,0,.773.773,0,0,0,0,1.1.8.8,0,0,0,1.12,0Z" transform="translate(-263.941 -49.781)" fill="#faed98"/>
      </g>
    </g>
  </g>
</svg>
