<svg xmlns="http://www.w3.org/2000/svg" width="64" height="64" viewBox="0 0 64 64">
  <g id="git-hover" transform="translate(-683 -171.365)">
    <g id="Group_5" data-name="Group 5" transform="translate(683 171.365)">
      <path id="Path_3" data-name="Path 3" d="M59.707,21.7A32.272,32.272,0,0,0,48.062,9.764,30.713,30.713,0,0,0,32,5.365a30.717,30.717,0,0,0-16.062,4.4A32.268,32.268,0,0,0,4.292,21.7,32.707,32.707,0,0,0,0,38.166,32.419,32.419,0,0,0,6.1,57.45,31.4,31.4,0,0,0,21.874,69.3a1.829,1.829,0,0,0,1.666-.3,1.69,1.69,0,0,0,.542-1.281q0-.128-.021-2.306t-.021-3.8l-.958.17a11.931,11.931,0,0,1-2.313.15,17.2,17.2,0,0,1-2.9-.3,6.4,6.4,0,0,1-2.792-1.28,5.417,5.417,0,0,1-1.833-2.626l-.417-.983a10.723,10.723,0,0,0-1.312-2.178,5.065,5.065,0,0,0-1.812-1.623l-.292-.214a3.089,3.089,0,0,1-.542-.513,2.351,2.351,0,0,1-.375-.6q-.125-.3.208-.492a2.643,2.643,0,0,1,1.208-.191l.833.128a6.018,6.018,0,0,1,2.063,1.025,6.829,6.829,0,0,1,2.021,2.22,7.47,7.47,0,0,0,2.313,2.67,4.824,4.824,0,0,0,2.729.918,11.568,11.568,0,0,0,2.375-.213,8.147,8.147,0,0,0,1.875-.641,6.989,6.989,0,0,1,2.041-4.4,27.9,27.9,0,0,1-4.271-.769,16.775,16.775,0,0,1-3.916-1.667,11.287,11.287,0,0,1-3.354-2.861,13.886,13.886,0,0,1-2.187-4.485,21.825,21.825,0,0,1-.854-6.407,12.633,12.633,0,0,1,3.292-8.8,11.748,11.748,0,0,1,.291-8.712,5.711,5.711,0,0,1,3.583.576,24.774,24.774,0,0,1,3.479,1.645q1.1.682,1.771,1.153a29.382,29.382,0,0,1,16,0L41.583,21.3a22.19,22.19,0,0,1,3.833-1.88,5.339,5.339,0,0,1,3.376-.469,11.634,11.634,0,0,1,.333,8.712,12.636,12.636,0,0,1,3.292,8.8,22.069,22.069,0,0,1-.854,6.428,13.343,13.343,0,0,1-2.207,4.485,11.716,11.716,0,0,1-3.376,2.84,16.807,16.807,0,0,1-3.917,1.666,27.869,27.869,0,0,1-4.271.77q2.166,1.921,2.166,6.064v9.011A1.723,1.723,0,0,0,40.48,69a1.775,1.775,0,0,0,1.646.3A31.4,31.4,0,0,0,57.9,57.449,32.425,32.425,0,0,0,64,38.165,32.733,32.733,0,0,0,59.707,21.7Z" transform="translate(0 -5.365)" fill="#807e86"/>
    </g>
  </g>
</svg>
