<svg xmlns="http://www.w3.org/2000/svg" width="18.996" height="17" viewBox="0 0 18.996 17">
  <path id="Logo" d="M9.536,17a8.515,8.515,0,0,1-4-1H7.054a1.026,1.026,0,0,1,.146-.268l1.5-2a1,1,0,0,1,1.6,0l1.5,2a1,1,0,0,1,.145.268h1.6A8.516,8.516,0,0,1,9.536,17Zm6.457-1H13.54a8.5,8.5,0,0,0,4.277-5.569v0L11.9,2.55a3,3,0,0,0-4.8,0l-5.86,7.8A8.492,8.492,0,0,0,5.53,16v0H3A3,3,0,0,1,.6,11.2l.635-.846A8.5,8.5,0,1,1,18.037,8.5a8.546,8.546,0,0,1-.22,1.93v0l.576.767a3,3,0,0,1-2.4,4.8Z" transform="translate(0)" fill="#1e1e1e"/>
</svg>
