<svg xmlns="http://www.w3.org/2000/svg" width="64" height="80" viewBox="0 0 64 80">
  <g id="skills-hover" transform="translate(-54)">
    <g id="XMLID_994_" transform="translate(54)">
      <g id="XMLID_210_">
        <path id="XMLID_462_" d="M113.248,0H69.525V0A1.592,1.592,0,0,0,68.4.457L54.464,14.208a1.549,1.549,0,0,0-.46,1.1l0,0v60A4.726,4.726,0,0,0,58.752,80h54.5A4.726,4.726,0,0,0,118,75.313V59.891a1.584,1.584,0,0,0-3.168,0V75.313a1.575,1.575,0,0,1-1.584,1.563h-54.5a1.575,1.575,0,0,1-1.584-1.562V16.875h9.188a4.726,4.726,0,0,0,4.752-4.687V3.125h42.139a1.575,1.575,0,0,1,1.584,1.563v42.7a1.584,1.584,0,0,0,3.168,0V4.688A4.726,4.726,0,0,0,113.248,0ZM67.941,12.188a1.575,1.575,0,0,1-1.584,1.563H59.409l8.532-8.415Z" transform="translate(-54)" fill="#807e86"/>
        <path id="XMLID_466_" d="M439.584,333.3a1.607,1.607,0,0,0-1.12.458,1.547,1.547,0,0,0,0,2.209,1.6,1.6,0,0,0,2.24,0,1.546,1.546,0,0,0,0-2.209A1.607,1.607,0,0,0,439.584,333.3Z" transform="translate(-377.168 -281.222)" fill="#807e86"/>
        <path id="XMLID_469_" d="M208.087,68.427a18.629,18.629,0,0,0-8.469-6.668,1.591,1.591,0,0,0-2.058.872,1.556,1.556,0,0,0,.884,2.03,15.246,15.246,0,0,1,9.775,14.228,15.082,15.082,0,0,1-2.777,8.729,5.449,5.449,0,0,0-4.012-3.6l-3.706-.8a6.449,6.449,0,0,0,1.591-4.239V75.032a4.578,4.578,0,0,0,.775-2.551V69.192A1.574,1.574,0,0,0,198.5,67.63h-6.719a5.681,5.681,0,0,0-5.714,5.635v2.3a1.544,1.544,0,0,1,0,.325v3.086a6.448,6.448,0,0,0,1.587,4.235l-3.706.8a5.45,5.45,0,0,0-4.009,3.6,15.082,15.082,0,0,1-2.777-8.729,15.247,15.247,0,0,1,9.775-14.228,1.556,1.556,0,0,0,.884-2.03,1.592,1.592,0,0,0-2.058-.872,18.63,18.63,0,0,0-8.47,6.668A18.161,18.161,0,0,0,174,78.89a18.587,18.587,0,0,0,18.671,18.437h.022A18.588,18.588,0,0,0,211.386,78.89,18.159,18.159,0,0,0,208.087,68.427ZM202.538,89.26v1.46a15.566,15.566,0,0,1-7.479,3.3l2.958-7.542,2.734.59A2.261,2.261,0,0,1,202.538,89.26Zm-6.393-10.28a3.453,3.453,0,0,1-6.9,0V77.132h6.133a4.779,4.779,0,0,0,.772-.063Zm-5.329,6.261a6.682,6.682,0,0,0,3.731.006,2.9,2.9,0,0,0,.42.351l-2.288,5.835L190.39,85.6A2.919,2.919,0,0,0,190.817,85.242Zm-1.576-11.977a2.531,2.531,0,0,1,2.545-2.51h5.135v1.726a1.538,1.538,0,0,1-1.547,1.526h-6.133v-.742Zm-4.608,13.8,2.707-.586L190.3,94.02a15.565,15.565,0,0,1-7.447-3.3V89.258A2.261,2.261,0,0,1,184.633,87.07Z" transform="translate(-154.99 -52.015)" fill="#807e86"/>
        <path id="XMLID_476_" d="M220.9,318h-25.2a4.688,4.688,0,1,0,0,9.375h25.2a4.688,4.688,0,1,0,0-9.375Zm-26.779,4.688a1.575,1.575,0,0,1,1.584-1.562H215.2v3.125H195.708A1.575,1.575,0,0,1,194.124,322.688ZM220.9,324.25h-2.535v-3.125H220.9a1.563,1.563,0,1,1,0,3.125Z" transform="translate(-169.26 -268.313)" fill="#807e86"/>
        <path id="XMLID_480_" d="M220.9,398h-25.2a4.688,4.688,0,1,0,0,9.375h25.2a4.688,4.688,0,1,0,0-9.375Zm-26.779,4.688a1.575,1.575,0,0,1,1.584-1.562h14.106v3.125H195.708A1.575,1.575,0,0,1,194.124,402.688ZM220.9,404.25h-7.921v-3.125H220.9a1.563,1.563,0,1,1,0,3.125Z" transform="translate(-169.26 -335.813)" fill="#807e86"/>
        <path id="XMLID_780_" d="M109.921,398h-6.337A1.574,1.574,0,0,0,102,399.563v6.25a1.574,1.574,0,0,0,1.584,1.563h6.337a1.574,1.574,0,0,0,1.584-1.562v-6.25A1.574,1.574,0,0,0,109.921,398Zm-1.584,6.25h-3.168v-3.125h3.168Z" transform="translate(-94.396 -335.813)" fill="#807e86"/>
        <path id="XMLID_927_" d="M111.5,319.563A1.574,1.574,0,0,0,109.921,318h-6.337A1.574,1.574,0,0,0,102,319.563v6.25a1.574,1.574,0,0,0,1.584,1.563h6.337a1.574,1.574,0,0,0,1.584-1.562Zm-3.168,4.688h-3.168v-3.125h3.168Z" transform="translate(-94.396 -268.313)" fill="#807e86"/>
        <path id="XMLID_944_" d="M112.72,251.563A1.574,1.574,0,0,0,111.135,250h-7.551a1.563,1.563,0,1,0,0,3.125h7.551A1.574,1.574,0,0,0,112.72,251.563Z" transform="translate(-94.396 -210.938)" fill="#807e86"/>
        <path id="XMLID_990_" d="M103.584,205.125h5.307a1.563,1.563,0,1,0,0-3.125h-5.307a1.563,1.563,0,1,0,0,3.125Z" transform="translate(-94.396 -170.438)" fill="#807e86"/>
        <path id="XMLID_992_" d="M103.584,157.125h5.307a1.563,1.563,0,1,0,0-3.125h-5.307a1.563,1.563,0,1,0,0,3.125Z" transform="translate(-94.396 -129.938)" fill="#807e86"/>
        <path id="XMLID_993_" d="M284.7,56.667a1.546,1.546,0,0,0,0-2.209,1.6,1.6,0,0,0-2.24,0,1.547,1.547,0,0,0,0,2.209,1.6,1.6,0,0,0,2.24,0Z" transform="translate(-245.881 -45.563)" fill="#807e86"/>
      </g>
    </g>
  </g>
</svg>
