<svg xmlns="http://www.w3.org/2000/svg" width="24" height="30" viewBox="0 0 24 30">
  <g id="skills" transform="translate(-54)">
    <g id="XMLID_994_" transform="translate(54)">
      <g id="XMLID_210_">
        <path id="XMLID_462_" d="M76.218,0h-16.4a.6.6,0,0,0-.42.17L54.174,5.328A.581.581,0,0,0,54,5.742h0v22.5A1.772,1.772,0,0,0,55.782,30H76.218A1.772,1.772,0,0,0,78,28.242V22.459a.594.594,0,0,0-1.188,0v5.783a.591.591,0,0,1-.594.586H55.782a.591.591,0,0,1-.594-.586V6.328h3.446A1.772,1.772,0,0,0,60.416,4.57v-3.4h15.8a.591.591,0,0,1,.594.586V17.772a.594.594,0,0,0,1.188,0V1.758A1.772,1.772,0,0,0,76.218,0ZM59.228,4.57a.591.591,0,0,1-.594.586H56.028L59.228,2Z" transform="translate(-54 0)" fill="#faed98"/>
        <path id="XMLID_466_" d="M438.594,333.3a.6.6,0,0,0-.42.172.58.58,0,0,0,0,.828.6.6,0,0,0,.84,0,.58.58,0,0,0,0-.828A.6.6,0,0,0,438.594,333.3Z" transform="translate(-415.188 -313.771)" fill="#faed98"/>
        <path id="XMLID_469_" d="M186.783,64.19a6.986,6.986,0,0,0-3.176-2.5.6.6,0,0,0-.772.327.583.583,0,0,0,.332.761,5.717,5.717,0,0,1,3.665,5.336,5.656,5.656,0,0,1-1.041,3.274,2.043,2.043,0,0,0-1.5-1.35l-1.39-.3a2.418,2.418,0,0,0,.6-1.59V66.666a1.717,1.717,0,0,0,.291-.956V64.477a.59.59,0,0,0-.594-.586h-2.52A2.13,2.13,0,0,0,178.527,66v.864a.586.586,0,0,1,0,.122v1.157a2.418,2.418,0,0,0,.6,1.588l-1.39.3a2.044,2.044,0,0,0-1.5,1.35,5.656,5.656,0,0,1-1.041-3.273,5.718,5.718,0,0,1,3.666-5.336.583.583,0,0,0,.332-.761.6.6,0,0,0-.772-.327,6.986,6.986,0,0,0-3.176,2.5A6.81,6.81,0,0,0,174,68.113a6.97,6.97,0,0,0,7,6.914h.008a6.97,6.97,0,0,0,7.01-6.914A6.81,6.81,0,0,0,186.783,64.19ZM184.7,72v.548a5.837,5.837,0,0,1-2.8,1.239l1.109-2.828,1.025.221A.848.848,0,0,1,184.7,72Zm-2.4-3.855a1.295,1.295,0,0,1-2.589,0v-.693h2.3a1.792,1.792,0,0,0,.289-.024Zm-2,2.348a2.506,2.506,0,0,0,1.4,0,1.089,1.089,0,0,0,.157.132L181,72.817l-.858-2.188A1.1,1.1,0,0,0,180.306,70.5ZM179.715,66a.949.949,0,0,1,.954-.941H182.6v.647a.577.577,0,0,1-.58.572h-2.3V66Zm-1.728,5.177,1.015-.22,1.108,2.826a5.837,5.837,0,0,1-2.793-1.237V72A.848.848,0,0,1,177.987,71.181Z" transform="translate(-166.871 -58.035)" fill="#faed98"/>
        <path id="XMLID_476_" d="M202.186,318h-9.448a1.758,1.758,0,1,0,0,3.516h9.448a1.758,1.758,0,1,0,0-3.516Zm-10.042,1.758a.591.591,0,0,1,.594-.586h7.31v1.172h-7.31A.591.591,0,0,1,192.144,319.758Zm10.042.586h-.951v-1.172h.951a.586.586,0,1,1,0,1.172Z" transform="translate(-182.82 -299.367)" fill="#faed98"/>
        <path id="XMLID_480_" d="M202.186,398h-9.448a1.758,1.758,0,1,0,0,3.516h9.448a1.758,1.758,0,1,0,0-3.516Zm-10.042,1.758a.591.591,0,0,1,.594-.586h5.29v1.172h-5.29A.591.591,0,0,1,192.144,399.758Zm10.042.586h-2.97v-1.172h2.97a.586.586,0,1,1,0,1.172Z" transform="translate(-182.82 -374.68)" fill="#faed98"/>
        <path id="XMLID_780_" d="M104.97,398h-2.376a.59.59,0,0,0-.594.586v2.344a.59.59,0,0,0,.594.586h2.376a.59.59,0,0,0,.594-.586v-2.344A.59.59,0,0,0,104.97,398Zm-.594,2.344h-1.188v-1.172h1.188Z" transform="translate(-99.149 -374.68)" fill="#faed98"/>
        <path id="XMLID_927_" d="M105.564,318.586a.59.59,0,0,0-.594-.586h-2.376a.59.59,0,0,0-.594.586v2.344a.59.59,0,0,0,.594.586h2.376a.59.59,0,0,0,.594-.586Zm-1.188,1.758h-1.188v-1.172h1.188Z" transform="translate(-99.149 -299.367)" fill="#faed98"/>
        <path id="XMLID_944_" d="M106.02,250.586a.59.59,0,0,0-.594-.586h-2.832a.586.586,0,1,0,0,1.172h2.832A.59.59,0,0,0,106.02,250.586Z" transform="translate(-99.149 -235.352)" fill="#faed98"/>
        <path id="XMLID_990_" d="M102.594,203.172h1.99a.586.586,0,1,0,0-1.172h-1.99a.586.586,0,1,0,0,1.172Z" transform="translate(-99.149 -190.164)" fill="#faed98"/>
        <path id="XMLID_992_" d="M102.594,155.172h1.99a.586.586,0,1,0,0-1.172h-1.99a.586.586,0,1,0,0,1.172Z" transform="translate(-99.149 -144.977)" fill="#faed98"/>
        <path id="XMLID_993_" d="M283.014,55a.58.58,0,0,0,0-.829.6.6,0,0,0-.84,0,.58.58,0,0,0,0,.829.6.6,0,0,0,.84,0Z" transform="translate(-268.456 -50.836)" fill="#faed98"/>
      </g>
    </g>
  </g>
</svg>
